<svg width="24" height="24" viewBox="0 0 24 24" fill="none" xmlns="http://www.w3.org/2000/svg">
<path d="M20.9249 6.35997C17.7899 1.49997 11.3699 0.0599657 6.40493 3.07497C1.55993 6.08997 -7.15256e-05 12.66 3.13493 17.505L3.38993 17.895L2.33993 21.825L6.26993 20.775L6.65993 21.03C8.35493 21.945 10.1999 22.47 12.0299 22.47C13.9949 22.47 15.9599 21.945 17.6549 20.895C22.4999 17.745 23.9399 11.31 20.9249 6.32997V6.35997ZM18.1799 16.47C17.6549 17.25 16.9949 17.775 16.0799 17.91C15.5549 17.91 14.8949 18.165 12.2849 17.13C10.0649 16.08 8.21993 14.37 6.91493 12.405C6.13493 11.49 5.72993 10.305 5.60993 9.11997C5.60993 8.06997 5.99993 7.15497 6.65993 6.49497C6.91493 6.23997 7.18493 6.10497 7.43993 6.10497H8.09993C8.35493 6.10497 8.62493 6.10497 8.75993 6.62997C9.01493 7.28997 9.67493 8.86497 9.67493 8.99997C9.80993 9.13497 9.74993 10.14 9.14993 10.71C8.81993 11.085 8.75993 11.1 8.89493 11.37C9.41993 12.15 10.0799 12.945 10.7249 13.605C11.5049 14.265 12.2999 14.79 13.2149 15.18C13.4699 15.315 13.7399 15.315 13.8749 15.045C14.0099 14.79 14.6549 14.13 14.9249 13.86C15.1799 13.605 15.3149 13.605 15.5849 13.725L17.6849 14.775C17.9399 14.91 18.2099 15.03 18.3449 15.165C18.4799 15.555 18.4799 16.08 18.2099 16.47H18.1799Z" fill="#887165"/>
</svg>
