<svg width="31" height="26" viewBox="0 0 31 26" fill="none" xmlns="http://www.w3.org/2000/svg">
<path d="M5.0375 1.10706e-08H25.9625C27.2492 -8.62555e-05 28.4872 0.504 29.4225 1.40885C30.3577 2.31371 30.9194 3.55072 30.9923 4.86615L31 5.15818V20.2359C31.0001 21.5535 30.5078 22.8211 29.6241 23.7788C28.7404 24.7365 27.5323 25.3116 26.2477 25.3862L25.9625 25.3941H5.0375C3.75079 25.3942 2.51282 24.8901 1.57754 23.9853C0.642268 23.0804 0.080598 21.8434 0.00775019 20.528L1.08115e-08 20.2359V5.15818C-8.42374e-05 3.84064 0.492209 2.57302 1.37589 1.61534C2.25957 0.657656 3.46765 0.0825288 4.7523 0.00793586L5.0375 1.10706e-08ZM28.675 8.52767L16.0425 15.3365C15.8999 15.4136 15.7431 15.4595 15.5822 15.4713C15.4213 15.483 15.2597 15.4604 15.1078 15.4047L14.959 15.3381L2.325 8.52925V20.2359C2.32503 20.933 2.58101 21.6046 3.04215 22.1173C3.50329 22.6301 4.13586 22.9465 4.8143 23.0039L5.0375 23.0134H25.9625C26.6435 23.0134 27.2995 22.751 27.8003 22.2785C28.3011 21.806 28.6101 21.1579 28.6657 20.4629L28.675 20.2359V8.52767ZM25.9625 2.3807H5.0375C4.35676 2.38073 3.70091 2.64285 3.20014 3.11503C2.69938 3.58722 2.39032 4.23495 2.3343 4.92964L2.325 5.15818V5.83906L15.5 12.9399L28.675 5.83748V5.15818C28.6749 4.46088 28.4187 3.78911 27.9573 3.27631C27.4958 2.76351 26.8629 2.4472 26.1841 2.39022L25.9625 2.3807Z" fill="#887165"/>
</svg>
