<svg width="26" height="31" viewBox="0 0 26 31" fill="none" xmlns="http://www.w3.org/2000/svg">
<g clip-path="url(#clip0_138_178)">
<path d="M25.3994 23.3592C25.0017 23.026 20.6498 19.5758 20.1165 19.1874C19.8841 19.0178 19.6005 18.935 19.2922 18.935C18.8945 18.935 18.4541 19.0731 18.0243 19.3429C17.6054 19.6059 16.3367 20.4666 15.716 20.8895C15.1692 20.4317 13.8846 19.2586 11.8607 16.843C9.84934 14.4458 8.85646 12.9017 8.47012 12.2463C8.82396 11.5066 9.54506 9.99394 9.76443 9.496C10.18 8.55728 10.2272 7.62002 9.88996 6.98791C9.57352 6.39212 6.69156 1.18122 6.39418 0.691031C6.11428 0.228453 5.61175 -0.0214844 5.06658 -0.0214844C4.63636 -0.0214844 4.18015 0.133516 3.78446 0.461922C3.74627 0.494375 -0.0773795 3.79975 -0.0265982 5.67961C0.114396 10.9603 4.41818 17.1661 8.00372 21.4426C11.5893 25.7192 16.7946 30.8521 21.241 31.0211H21.2775C22.8343 31.0211 25.5708 26.5198 25.5972 26.4753C26.3151 25.2522 26.0534 23.9056 25.3994 23.3592ZM24.2769 25.3467C23.2462 27.0488 21.7829 28.8265 21.2101 29.0808C18.1624 28.9103 13.8858 25.7168 9.15262 20.0724C4.41981 14.4275 1.74181 9.33431 1.60043 5.71264C1.806 5.02773 3.29691 3.27187 4.71147 2.05222C4.81628 1.966 4.94547 1.91611 5.06613 1.91611C5.09291 1.91611 5.11526 1.91901 5.13275 1.92289C5.58978 2.71484 8.04313 7.14303 8.48838 7.97079C8.49 8.05798 8.46524 8.27928 8.32588 8.59512C8.17759 8.93176 7.71569 9.91311 7.05878 11.2858L6.54772 12.3539L7.14044 13.3604C7.58244 14.1088 8.63381 15.7358 10.711 18.2129C12.7971 20.7011 14.1568 21.9508 14.782 22.4749L15.6262 23.1816L16.522 22.5713C17.3902 21.9798 18.4391 21.2712 18.7803 21.0576C19.0542 20.8857 19.2414 20.8721 19.2922 20.8721C19.3003 20.8721 19.3073 20.8721 19.3129 20.8731C19.9349 21.3385 23.7293 24.3422 24.3992 24.89C24.4101 24.9675 24.4 25.136 24.2769 25.3467ZM17.3645 11.5726L24.3532 3.29061L24.3308 7.98469C24.3235 8.37655 24.5839 8.71706 24.9126 8.70789L25.3294 8.70741C25.6585 8.69772 25.9299 8.46522 25.9368 8.07384L25.9534 1.08044C25.9534 1.07369 25.9315 1.06884 25.9315 1.06206L25.9636 0.7075C25.9668 0.510844 25.9286 0.3355 25.8214 0.210047C25.7166 0.0836553 25.5691 0.00660937 25.4054 0.0119678L25.1084 0.0202022C25.1027 0.0202022 25.0983 0.0231084 25.0918 0.0240771L19.2654 -0.00695312C18.9371 0.0017959 18.6657 0.325358 18.658 0.717218L18.6572 1.21419C18.7071 1.67534 19.011 1.94559 19.3397 1.93687L23.18 1.94898L16.2156 10.2023C15.8983 10.5806 15.8983 11.1943 16.2156 11.5726C16.5329 11.9504 17.0472 11.9504 17.3645 11.5726L17.3645 11.5726Z" fill="#8C6C61"/>
</g>
<defs>
<clipPath id="clip0_138_178">
<rect width="26" height="31" fill="white"/>
</clipPath>
</defs>
</svg>
