<svg width="77" height="77" viewBox="0 0 77 77" fill="none" xmlns="http://www.w3.org/2000/svg">
<path d="M44.2622 66.7462C44.4675 66.8275 44.6525 66.8681 44.8172 66.8681C44.9819 66.8681 45.1669 66.8275 45.3723 66.7462L64.0319 60.9969C63.9678 60.0215 63.6758 59.3189 63.1561 58.889C62.6363 58.4591 62.0481 58.2441 61.3915 58.2441H46.1679C44.8119 58.2441 43.582 58.1907 42.4784 58.0837C41.3768 57.9768 40.2486 57.7212 39.0936 57.3169L33.5945 55.5459C33.156 55.4026 32.8405 55.1149 32.648 54.6829C32.4555 54.2508 32.432 53.823 32.5774 53.3995C32.7207 52.976 32.9956 52.6659 33.402 52.4691C33.8084 52.2723 34.2329 52.2477 34.6757 52.3953L39.6486 54.1952C40.6796 54.546 41.8217 54.7706 43.0751 54.869C44.3285 54.9673 45.8781 55.023 47.724 55.0358H48.5581C48.5581 54.0369 48.3731 53.2284 48.0031 52.6103C47.6352 51.9943 47.108 51.5644 46.4214 51.3205L27.9606 44.5478C27.8387 44.505 27.7264 44.4729 27.6238 44.4515C27.5211 44.4323 27.4077 44.4226 27.2837 44.4226H20.5462V59.8483L44.2622 66.7462ZM43.4409 69.916L20.5462 63.217C20.2425 64.4833 19.5955 65.4928 18.6051 66.2457C17.617 66.9986 16.5379 67.375 15.3679 67.375H12.8975C11.473 67.375 10.2539 66.8671 9.24002 65.8511C8.22405 64.8372 7.71606 63.6181 7.71606 62.1936V46.399C7.71606 44.9723 8.22298 43.7521 9.23681 42.7383C10.2528 41.7223 11.473 41.2143 12.8975 41.2143H27.2163C27.5158 41.2143 27.8227 41.2485 28.1371 41.317C28.4537 41.3854 28.7478 41.4645 29.0194 41.5544L47.5636 48.3464C48.71 48.7828 49.6971 49.5667 50.5249 50.6981C51.3547 51.8296 51.7697 53.2755 51.7697 55.0358H61.3947C63.3261 55.0358 64.8062 55.64 65.835 56.8485C66.8638 58.0591 67.3782 59.5938 67.3782 61.4525C67.3782 62.0941 67.205 62.6363 66.8585 63.0791C66.5098 63.5197 66.0019 63.8512 65.3345 64.0737L46.4567 69.9C45.9925 70.0305 45.5006 70.1053 44.9809 70.1246C44.4632 70.146 43.951 70.0765 43.4441 69.916M10.9212 62.1936C10.9212 62.7689 11.1062 63.2416 11.4762 63.6117C11.8463 63.9817 12.319 64.1667 12.8943 64.1667H15.3647C15.9401 64.1667 16.4128 64.0127 16.7828 63.7047C17.1528 63.3967 17.3379 62.893 17.3379 62.1936V44.4226H12.8943C12.319 44.4226 11.8463 44.6076 11.4762 44.9777C11.1062 45.3477 10.9212 45.8215 10.9212 46.399V62.1936ZM43.2997 9.71167C43.8259 9.71167 44.3456 9.79509 44.8589 9.96192C45.3723 10.1288 45.8599 10.364 46.3219 10.6678L61.9946 21.8295C62.6855 22.2937 63.2202 22.9086 63.5988 23.6743C63.9774 24.4401 64.1667 25.2325 64.1667 26.0517V45.7765C64.1667 46.2321 64.0127 46.6129 63.7047 46.9187C63.3967 47.2267 63.0149 47.3807 62.5593 47.3807C62.1059 47.3807 61.7251 47.2267 61.4171 46.9187C61.1113 46.615 60.9584 46.2364 60.9584 45.783V25.9747C60.9584 25.6453 60.8867 25.3373 60.7434 25.0507C60.5979 24.762 60.3819 24.5149 60.0953 24.3096L44.4226 13.3884C44.0932 13.1424 43.7232 13.0195 43.3125 13.0195C42.9019 13.0195 42.5318 13.1424 42.2024 13.3884L26.5297 24.3096C26.2431 24.5149 26.0271 24.7609 25.8816 25.0475C25.7383 25.3384 25.6667 25.6496 25.6667 25.9811V31.9647C25.6667 32.4181 25.5127 32.7988 25.2047 33.1068C24.8967 33.4148 24.5149 33.5688 24.0593 33.5688C23.6059 33.5688 23.2251 33.4148 22.9171 33.1068C22.6113 32.7967 22.4584 32.4149 22.4584 31.9615V26.0581C22.4584 25.2347 22.6476 24.4401 23.0262 23.6743C23.4048 22.9086 23.9395 22.2937 24.6304 21.8295L40.3031 10.6678C40.7672 10.364 41.2517 10.1288 41.7565 9.96192C42.2591 9.79509 42.7735 9.71167 43.2997 9.71167ZM40.1042 27.0848C40.4507 27.0848 40.7533 26.9565 41.0121 26.6998C41.271 26.4431 41.3993 26.1394 41.3971 25.7886C41.3971 25.4443 41.2688 25.1427 41.0121 24.8839C40.7533 24.6251 40.4507 24.4957 40.1042 24.4957C39.7577 24.4957 39.455 24.624 39.1962 24.8807C38.9396 25.1416 38.8112 25.4443 38.8112 25.7886C38.8112 26.1351 38.9396 26.4378 39.1962 26.6966C39.455 26.9554 39.7577 27.0848 40.1042 27.0848ZM46.5209 27.0848C46.8674 27.0848 47.17 26.9565 47.4288 26.6998C47.6876 26.4431 47.816 26.1394 47.8138 25.7886C47.8138 25.4443 47.6855 25.1427 47.4288 24.8839C47.17 24.6251 46.8674 24.4957 46.5209 24.4957C46.1744 24.4957 45.8717 24.624 45.6129 24.8807C45.3562 25.1416 45.2279 25.4443 45.2279 25.7886C45.2279 26.1351 45.3562 26.4378 45.6129 26.6966C45.8717 26.9554 46.1744 27.0848 46.5209 27.0848ZM40.1042 33.5015C40.4507 33.5015 40.7533 33.3731 41.0121 33.1165C41.271 32.8598 41.3993 32.5561 41.3971 32.2053C41.3971 31.8609 41.2688 31.5593 41.0121 31.3005C40.7533 31.0417 40.4507 30.9123 40.1042 30.9123C39.7577 30.9123 39.455 31.0407 39.1962 31.2973C38.9396 31.5583 38.8112 31.8609 38.8112 32.2053C38.8112 32.5518 38.9396 32.8544 39.1962 33.1133C39.455 33.3721 39.7577 33.5015 40.1042 33.5015ZM46.5209 33.5015C46.8674 33.5015 47.17 33.3731 47.4288 33.1165C47.6876 32.8598 47.816 32.5561 47.8138 32.2053C47.8138 31.8609 47.6855 31.5593 47.4288 31.3005C47.17 31.0417 46.8674 30.9123 46.5209 30.9123C46.1744 30.9123 45.8717 31.0407 45.6129 31.2973C45.3562 31.5583 45.2279 31.8609 45.2279 32.2053C45.2279 32.5518 45.3562 32.8544 45.6129 33.1133C45.8717 33.3721 46.1744 33.5015 46.5209 33.5015Z" fill="#887165"/>
</svg>
