<svg width="77" height="77" viewBox="0 0 77 77" fill="none" xmlns="http://www.w3.org/2000/svg">
<path d="M30.1101 26.9019V23.6935H56.5147V26.9019H30.1101ZM30.1101 35.7857V32.5774H56.5147V35.7857H30.1101ZM38.0058 67.375H19.2499C17.4404 67.375 15.9186 66.7579 14.6845 65.5238C13.4503 64.2897 12.8333 62.7678 12.8333 60.9583V52.0712H22.4583V9.625H64.1666V34.9388C63.5891 34.9559 63.0405 35.0168 62.5207 35.1216C62.001 35.2286 61.4801 35.3783 60.9583 35.5708V12.8333H25.6666V52.0712H42.8183L39.61 55.2796H16.0416V60.9583C16.0416 61.8674 16.3496 62.6299 16.9656 63.2459C17.5816 63.8619 18.343 64.1688 19.2499 64.1667H38.0058V67.375ZM45.6577 67.375V60.2846L62.7645 43.258C63.0832 42.9414 63.4126 42.7275 63.7527 42.6163C64.0949 42.5051 64.4372 42.4495 64.7794 42.4495C65.1323 42.4495 65.4895 42.5179 65.851 42.6548C66.2124 42.7917 66.5311 42.9981 66.807 43.274L69.7747 46.3059C70.0378 46.6224 70.2389 46.9507 70.3779 47.2908C70.5148 47.6331 70.5833 47.9753 70.5833 48.3175C70.5833 48.6597 70.5169 49.0041 70.3843 49.3506C70.2539 49.6971 70.0507 50.0286 69.7747 50.3452L52.7449 67.375H45.6577ZM48.4939 64.5356H51.5418L62.6683 53.3931L61.1604 51.8691L59.7006 50.3035L48.4939 61.4877V64.5356ZM61.1604 51.8691L59.7006 50.3035L62.6683 53.3931L61.1604 51.8691Z" fill="#8C6C61"/>
</svg>
